<svg xmlns="http://www.w3.org/2000/svg" xmlns:xlink="http://www.w3.org/1999/xlink" width="300" height="300" viewBox="-2059299.096460444 -1419098.9178963613 2215177.497341038 2406017.040470008" preserveAspectRatio="xMinYMin meet"><g transform="matrix(1,0,0,-1,0,-432180.7953227147)"><g><path fill-rule="evenodd" fill="#66cc99" stroke="#555555" stroke-width="16040.113603133386" opacity="0.6" d="M -1922093.3761967854,-181530.8924405907 L -1927846.816767621,-177904.1712878142 L -1926447.3149663757,-173206.60580496799 L -1922427.393594369,-168111.2825464603 L -1921645.570812558,-164304.46730281896 L -1912900.707391924,-157981.4938016764 L -1910697.4635197446,-153652.93830708513 L -1897344.8248834442,-171728.83370067884 L -1891896.283516549,-173751.778265625 L -1889986.2600493308,-172996.15071486245 L -1892782.8619382274,-161186.51830105096 L -1896533.569674683,-156136.97476348412 L -1898034.7661900006,-147879.80510413388 L -1906555.3814948238,-151180.97259086056 L -1909100.1822796515,-149772.3662102023 L -1904574.9742784672,-146490.8810329079 L -1900173.6917351931,-145502.92949526358 L -1898326.939931291,-142614.5864376662 L -1899198.8075628346,-140615.45572983584 L -1906831.8602549175,-141760.99328946162 L -1910032.7550152366,-139368.82955683 L -1909486.2219235897,-131550.5441157362 L -1906878.556588909,-128969.5957238699 L -1907199.121617594,-116472.42098128777 L -1903637.0178754134,-113283.42199330867 L -1903718.0571991266,-110638.8674156421 L -1899362.9555395332,-111469.01323539458 L -1897784.7276924266,-108222.3380859432 L -1908289.2604097049,-102089.10560021177 L -1908602.1598335293,-96870.02748359492 L -1910027.253401387,-95602.46369091186 L -1906158.4075433773,-88622.24007201038 L -1899814.2576921978,-84848.63252923345 L -1898869.9603120743,-81832.9359116195 L -1899271.1512224455,-75652.79720467658 L -1903028.299796557,-71397.8841599313 L -1904313.3473436467,-63701.1274230331 L -1904566.409474718,-58668.54737605299 L -1902676.7006596562,-55036.021069314695 L -1897976.7467231974,-51991.13428095945 L -1887234.396698088,-51506.79678699519 L -1873308.6401573645,-43771.397323937075 L -1867111.11308924,-44278.99687783796 L -1864092.1063896527,-46425.5183214875 L -1839867.3655809404,-47836.44353764195 L -1838205.7333482208,-46727.09778768531 L -1844386.4089219996,-34412.64934045746 L -1850374.2233749053,-29918.694159328752 L -1853856.8129685884,-30152.11213641375 L -1855923.6997633146,-27331.531661166875 L -1861866.6814550934,-27357.080573658684 L -1866496.7937763727,-24513.416383993994 L -1878561.0696681996,-25282.15049723949 L -1878484.2292491333,-29531.22563175206 L -1880182.9547682141,-30449.40818411903 L -1888590.3383831126,-26208.532069246234 L -1888893.6970258378,-23455.71574435434 L -1892439.8876479964,-20071.440454061532 L -1900696.8630796296,-16231.62094990687 L -1900953.5463085398,-12607.539113918983 L -1903800.523333295,-11534.04327473754 L -1905011.8324155828,-7333.410500680845 L -1920058.2152467868,-3247.940638370404 L -1923049.9672131413,4783.7060551373515 L -1918178.562237916,8898.492115005669 L -1914269.9366597498,5176.495695245804 L -1905344.0220204052,7451.004105164727 L -1902893.7620991354,17316.23267501078 L -1900996.8724623579,19636.3533720245 L -1901784.6060870546,24862.678326177444 L -1900315.886566409,34834.00011150734 L -1895520.10814512,45812.75456966968 L -1893994.2355288104,58342.65595680271 L -1887441.1818731064,62380.90861317142 L -1879004.1150197708,63017.49346899186 L -1875535.6634616805,66893.03090055891 L -1867637.6223258204,88096.5467272856 L -1865514.905127178,107401.47547814 L -1866424.338929728,112159.31849703545 L -1863057.6827020121,115826.3646056014 L -1863926.7048152678,118205.99343745502 L -1856707.9490546824,123542.98664618221 L -1851771.5228554832,135088.2315132786 L -1844851.4839032262,137460.5977808994 L -1841903.7794836403,135205.533679103 L -1839965.6191054147,136144.85107283288 L -1837469.7393173543,135045.31298785188 L -1837486.9890109089,139145.93416699945 L -1827514.013571778,147935.80885514934 L -1819504.2345715775,145008.8024103414 L -1817138.6770942889,145911.00552341537 L -1815262.4501468933,144061.88482161096 L -1810049.929007417,144431.90634524732 L -1801909.081168249,154331.51772444957 L -1798855.6859712035,153510.91199677644 L -1797089.538255579,154923.5585577377 L -1795529.7537725314,161257.86878306526 L -1792099.0212326858,163216.28736867948 L -1788653.5943734115,170172.09651513078 L -1791450.017708315,180086.2722779653 L -1786356.463171333,187864.86189558828 L -1788596.8360558415,194590.23385285996 L -1788038.9058300946,197008.2446749231 L -1785540.8255082828,197339.79821886652 L -1787535.140344227,203085.19128010783 L -1779902.4627213026,206869.62874486187 L -1778325.7779426228,204756.11015279245 L -1772847.0618290633,205595.77741261458 L -1768135.2553699852,213898.87903997203 L -1769083.4109188954,219756.02618435788 L -1766466.430958102,220697.24549182542 L -1753215.9669502776,235690.8650231796 L -1750544.8367979587,242689.98834811608 L -1750856.4337526646,246318.06050870847 L -1753996.3905244002,250166.0270392532 L -1755491.702419532,255600.35068423353 L -1757308.4022177348,256438.63594365562 L -1757059.364615579,258336.80990868172 L -1754535.2266170322,259521.80157968792 L -1755197.3924568042,262132.23998259066 L -1759096.4811238938,264188.8647788387 L -1758849.1882697458,269324.1855845487 L -1762265.6920957011,272744.3925623268 L -1767453.0008324357,275378.7629609951 L -1771752.295416885,275295.674507736 L -1773713.6591421692,277311.812229392 L -1779837.7558865717,272892.9450975616 L -1787223.5094048951,270960.70342907665 L -1800701.5136331196,274676.5569618055 L -1804253.024212804,273090.51791939605 L -1810487.0381272256,276583.0320740076 L -1812799.6488199465,281724.6723043511 L -1812136.9978613094,286550.991355907 L -1807350.3150147407,293959.9909611751 L -1800729.3829549751,295528.8359013995 L -1799064.80548413,298574.8425158577 L -1800171.1146659849,305477.79726093914 L -1811241.0521639595,305373.50814793515 L -1817314.882571514,302734.74464835506 L -1821535.26985405,302994.16239946656 L -1824033.7719201404,300290.467208994 L -1827698.4177731695,299574.53274315654 L -1829944.3679227438,300556.8600771155 L -1830265.165878235,307057.4506261687 L -1825771.9991480804,313229.5912222491 L -1817135.466969017,319828.687410692 L -1786867.2803032978,328699.95814248186 L -1775603.9526627716,319700.39356746146 L -1764531.2009874706,303682.2446923651 L -1753351.785870176,297002.48228268384 L -1746732.931694926,299985.1310792203 L -1726353.1539378157,299930.1664150228 L -1682927.2221082612,311002.9104440937 L -1682653.9641666464,337519.8886876013 L -1679022.4123200208,360704.67597858346 L -1659823.6446557976,381800.5231396662 L -1657677.2208692057,388001.30296759726 L -1659689.3696082355,402815.5784201752 L -1653509.8503839246,446434.08612757456 L -1636804.084187629,471671.2049955822 L -1626276.868153066,484003.9859107693 L -1619004.952578966,489997.38597028423 L -1605069.7706048454,497336.7519563834 L -1603381.8856104033,500079.5650723498 L -1607883.7360075442,518267.6748253692 L -1608133.7389079733,523284.22870892595 L -1605722.2570815226,531558.3945175646 L -1595618.4435220098,536914.8059435168 L -1593096.3329554456,544535.6903453287 L -1594868.5869203196,551485.9597068791 L -1593245.3886061944,558554.0753267764 L -1587928.5461129076,565744.6175040014 L -1574707.711078025,574913.7934550729 L -1565741.1477614918,589858.0656492953 L -1563745.679549606,606819.5454503194 L -1574421.8022704534,642503.3077923435 L -1577242.1463918306,667866.2928500457 L -1587964.0141412255,690432.2593321048 L -1587129.7368085305,694566.8660630086 L -1582663.3171043592,701052.4189556976 L -1583079.3568532327,703964.6971978167 L -1588373.4667858928,712336.3413767163 L -1597611.4311224287,733375.6784704325 L -1595753.6879857304,747806.2720049944 L -1599246.538825926,753851.6926799084 L -1590069.7718890193,756598.6379960146 L -1577661.1618313773,752461.2091985769 L -1561803.9302836373,753973.3126277933 L -1551787.51654748,761334.1296668745 L -1532978.509277691,765634.7208710996 L -1521797.6504183917,770779.1085272633 L -1509236.372954215,772043.2358260554 L -1498357.9488557288,769392.2784942455 L -1490007.1303970164,776190.0825637894 L -1483242.0596790162,773485.7833077144 L -1477131.8931868917,774289.7056090484 L -1466829.187689992,768757.7218517613 L -1462997.9548702585,783661.4916604727 L -1453330.7308995957,786815.9797737192 L -1457114.84466306,791925.5720123223 L -1449646.8700693632,798017.0074698696 L -1430338.5979342083,805705.9283887339 L -1407016.7019988433,808523.8276588996 L -1337402.4826238302,841433.8970762991 L -1311946.3798170048,847190.7682188089 L -1263710.521811032,867732.5306151345 L -1229250.9002546654,873016.3750406615 L -1216166.8370566294,878712.2649847745 L -1214383.3280624524,878494.2031159693 L -1213671.3001208988,876552.0870876827 L -1178871.8999618266,878260.7483278472 L -1151261.1326626127,874870.8711785546 L -1139027.9627798016,877473.6748764439 L -1135380.1695955507,882830.385963243 L -1130611.5252718194,886243.1353321236 L -1131784.0299826588,889075.1316774264 L -1129371.319502998,890191.7563159392 L -1124689.166452501,890429.0514068513 L -1108507.8567859915,885741.9475450241 L -1091330.7132482398,891256.3430920697 L -1075023.7472985366,891935.4087421456 L -1054967.0477242416,887135.2936623085 L -1049926.990509595,883462.9806064712 L -1039409.238426394,881888.1494097606 L -1037185.5648892467,879758.6075236817 L -1031255.2136462447,878478.5399608577 L -1024196.6185801021,878813.6754416256 L -1009855.5195516743,883698.385884185 L -1005903.3631243254,881148.463237646 L -1004196.8297764896,876889.8807866037 L -1006421.8855095403,867446.3263981348 L -1004171.5421911215,861185.2879465389 L -1003107.7258392961,864282.94953201 L -1004241.8919236048,880281.2730853978 L -1002406.245109366,882287.0388121343 L -1002266.7374436377,886627.2166940591 L -999168.3340738895,888339.3326666375 L -1000370.4180068994,891691.6049011651 L -982312.5036019465,897806.3803340166 L -983216.601107777,852338.6777021713 L -979531.1190110878,850766.6162633414 L -961869.948959695,809657.4854000438 L -952517.483765335,793738.1128108588 L -948293.719258439,789433.0891807647 L -948530.7841087822,786991.6195408995 L -943698.2064917831,785666.5606966561 L -939156.2464013464,777434.8617247891 L -934263.9928807319,779123.0128832349 L -927697.3641028081,770531.6207787016 L -927823.9405855543,764720.541410524 L -923953.2794788411,764022.803587193 L -913532.6768088143,755058.7661189178 L -903428.5349559351,740154.7461035099 L -898965.8940896527,742126.1163071765 L -892298.6995394371,740498.1569013358 L -889209.0099356631,737824.8881029572 L -882787.6959184126,736595.5376007701 L -877229.1458344555,732491.6194479653 L -875352.1896620535,729168.0925842754 L -871850.692976313,720504.4582961294 L -872107.3854744231,712634.0577526831 L -866873.7481090943,702143.44064991 L -867564.4826553727,698777.8155023683 L -865924.0881911926,700234.129934405 L -863511.0482020918,699640.2279383949 L -861325.0114829846,690193.7982909918 L -857628.6347706977,685090.892936846 L -857373.8598870824,683129.487014327 L -859753.0242990993,680690.8750286308 L -858716.5503507551,676645.3234292093 L -860948.6296826322,672706.2238032663 L -859077.4378310281,671783.3240216727 L -857160.9946894541,674201.7066844908 L -854814.0606073075,673742.9266426964 L -854893.0758675182,667425.6839045559 L -851487.8065145221,661467.3006195329 L -848862.2100194008,661264.0422298975 L -847913.1983731373,658958.6932121129 L -849921.7343834626,653825.4777964583 L -853465.3296360575,658730.1223225037 L -857308.4579534503,659615.0481620058 L -855917.4575157509,653237.278186849 L -859078.4427175561,646296.5412029041 L -860966.8889144273,646804.9685755722 L -861998.1944060846,649451.6265951281 L -866168.2623476884,649750.8380246955 L -862683.928792134,641041.773395108 L -855921.7685849809,636049.7195269623 L -856831.4755643134,633919.4551116015 L -831123.3506155347,602553.0300597551 L -831910.4021767635,599950.9532312619 L -835438.6012043399,601957.8398169132 L -832392.8694822988,597604.6335942025 L -819152.749293777,587399.6579731887 L -806097.958565268,583866.4833482392 L -797331.4508150492,579034.3442279045 L -769959.9165937534,555853.3430658946 L -748356.0370753555,526207.2387286443 L -737841.603262715,508854.01735866047 L -704136.6942333658,437737.3090969227 L -699669.0051296683,431131.43907931226 L -689194.0795988166,416971.48361997725 L -669045.0978802806,398085.6187360265 L -647060.6236638232,380267.8786463894 L -636192.3231711048,368431.55810662993 L -618096.4051541198,341819.2432798316 L -596943.927910638,315920.02684898966 L -564716.7894567691,287901.48067992344 L -554283.701750547,284337.7603198398 L -541523.9774513509,271475.444468283 L -534015.5680167265,267505.8558162025 L -534637.2549838654,261752.43160234453 L -529484.6048862707,261406.49126384626 L -522348.20744680305,263655.1575336203 L -517898.433523571,254283.9471260266 L -517370.406792919,245564.43645987037 L -509517.4190887959,237127.83484632356 L -502310.96494152956,241798.900881586 L -496119.5140659177,243009.62930606666 L -473923.29932428576,232857.95457071342 L -474281.74593661743,224277.6701687523 L -472302.6586187772,221839.22941360256 L -467878.26666788803,220650.90632874094 L -439635.7188900014,200609.47879781475 L -405501.3807430706,197002.0258546198 L -353811.7979166577,180351.87303393858 L -306413.66976942145,154805.75885316776 L -268997.91499024915,140199.1353301012 L -192871.68672659877,94394.82178953079 L -173468.66808740632,80791.35948815603 L -166736.14632446677,62753.73947649014 L -162543.44259579957,26081.318798672793 L -166449.41047547723,-41022.570673621085 L -166138.78582740691,-77430.10748788595 L -160116.24995874453,-100638.38304772518 L -140017.82220866624,-120263.94483394774 L -154302.2223422502,-131242.6816394618 L -163715.91279039785,-149485.64584774955 L -179860.69409458325,-194203.2254658719 L -197200.99913776526,-223026.2481817346 L -215574.2989949408,-248162.5198110166 L -231748.642433384,-263037.3520798943 L -269508.2282657949,-287158.0364142814 L -270980.20216214005,-293045.9319996607 L -263061.80909095425,-316305.72958250507 L -277084.7978895195,-331060.0745760755 L -281615.6644929964,-339950.9452622755 L -278544.8903558126,-344284.4919840373 L -282256.6794173997,-365506.1757019825 L -274235.4868019894,-380173.49934159 L -261244.6347735911,-395118.44566174224 L -261053.7898064896,-405271.588855021 L -257646.7932753449,-417090.212801719 L -262700.9466593553,-429201.5125325402 L -263019.9069973957,-434987.7835961364 L -266051.1209685011,-438931.7947184997 L -272241.8141836785,-439016.77587620914 L -275479.97751427285,-441867.7350545503 L -274508.4932492891,-445404.24792554404 L -270244.14261441684,-448638.4473802303 L -266217.33879754564,-447395.64550546295 L -264501.60518583126,-448806.1558985539 L -267646.41695685335,-456511.873405422 L -271252.6939261607,-459699.83468024444 L -273404.39778354357,-478624.9034632639 L -268359.73385832703,-483265.59016495536 L -256295.93342659887,-477244.2840359362 L -235670.1918134096,-472294.88002037664 L -229485.08840606487,-480717.82437328564 L -223382.43705865124,-480565.71025305893 L -218969.47602591815,-483412.1834189935 L -211977.1036394206,-498713.8426084057 L -213384.02569134833,-507860.2431436496 L -182848.95158321812,-539828.0075517212 L -107405.34015557144,-598581.0656776029 L -56159.936759770215,-629646.6692701989 L -43681.81034013979,-639377.3291974488 L -2132.9960649069812,-679503.0845382757 L 23773.171099835276,-719237.0892417309 L 35412.56894805792,-750059.9439298374 L 53159.19657148958,-808990.1084365014 L 62764.05680628598,-854712.5421856716 L 66259.08843285103,-888796.4244971077 L 66766.65864096422,-940324.6010361289 L 62691.906246651284,-987778.9555882273 L 56664.0150927852,-1034140.7058788462 L 36206.16173897367,-1127786.495482665 L 22802.58424343049,-1216778.668296189 L 14828.57859197895,-1259238.7237750879 L 10241.488694976848,-1297529.7505010234 L 3967.350336639694,-1327420.6517110262 L -12610.107254438295,-1329987.1756567315 L -21710.878538771936,-1329229.7042920112 L -34356.03894078449,-1322545.402430445 L -42000.40106112253,-1321277.0048193098 L -48530.15938389994,-1316058.4573669606 L -59997.41427246231,-1311121.3699788442 L -68564.80375420694,-1301376.8944541614 L -73313.42182480058,-1298603.1675518125 L -70510.56808631575,-1282982.2010605626 L -79825.51517920627,-1278871.2353362683 L -99876.14340205403,-1275192.3617520768 L -108564.55098182184,-1270386.6786463708 L -125242.8134785617,-1264755.8969683116 L -156266.9650936572,-1255589.4242914144 L -167737.41426254477,-1253850.0123624578 L -170308.42789340095,-1250716.401911714 L -178128.6000943076,-1250766.3054712636 L -190001.9720695771,-1246348.529086064 L -231138.86365258644,-1236657.2876103777 L -238138.0199814182,-1233497.3410675935 L -241264.33943421618,-1229974.474671997 L -277968.6932611895,-1219719.729862825 L -323669.04102155624,-1199266.2347517642 L -325901.6135114793,-1194838.7942529644 L -329792.183482372,-1193399.9378284765 L -333804.09177483525,-1189048.2029312882 L -332077.3065651952,-1187472.9610113776 L -329507.87781122583,-1187780.34942257 L -331419.397305382,-1183402.4812158116 L -327510.5699608909,-1181804.0898407865 L -328234.37511204084,-1180946.3833287712 L -333333.0998806184,-1183391.3255798637 L -344743.97157678084,-1178026.836855293 L -349061.95928613504,-1181666.943968117 L -349399.66271921137,-1183729.096033229 L -352597.6842999911,-1185092.6535415845 L -370166.79092064477,-1173019.2154894199 L -359300.81580943306,-1182815.6151063596 L -358644.42926274455,-1184960.1309391276 L -371054.5061920935,-1198519.3019074572 L -378723.4019916342,-1204556.1807233656 L -389335.6281315731,-1207831.0133062075 L -399953.62786763813,-1208248.7121665436 L -406831.55908685585,-1211598.4848939215 L -417112.6842472633,-1213522.6504132096 L -442424.03029848373,-1225922.6921427217 L -461153.3776010163,-1225446.0073398142 L -467925.4825269748,-1229142.8653022912 L -481281.1324901878,-1231807.8938623548 L -484600.2660081716,-1239091.3862521953 L -491317.66080350947,-1244779.3847851187 L -498017.1927257211,-1254803.7440469714 L -504652.32474929345,-1259539.8750592624 L -502190.62483709585,-1266071.625232586 L -504138.00915099675,-1269368.3851666052 L -510206.93290337315,-1273364.7320207083 L -508363.5513540042,-1279500.9753995005 L -509253.70614963653,-1284996.8797470564 L -511909.17951095506,-1290536.965645426 L -518324.7995032852,-1296954.4622700787 L -517456.05551707983,-1302785.6295203904 L -518891.0933101726,-1307513.0506163612 L -524486.1347757137,-1311160.9891990025 L -529496.9753818244,-1310825.2090608643 L -533195.7164772289,-1306334.7550907265 L -533197.8581034928,-1298822.7388141262 L -535348.6351961283,-1298802.5546872462 L -536845.301499496,-1299549.8412212592 L -534236.4160289888,-1303532.367750172 L -534964.0616917965,-1305079.9545373237 L -537747.4575398343,-1304673.5993521968 L -538148.7728169591,-1307848.8998347183 L -541825.531977193,-1311101.4353391388 L -548754.9149679181,-1314045.6745657981 L -552222.8322067857,-1312350.848930455 L -553048.4990184084,-1307248.4516031418 L -550232.2352098408,-1305442.998549164 L -552046.057820884,-1295537.4313176621 L -550279.3071145677,-1290575.5498109362 L -552510.8412288572,-1287680.1491683123 L -566356.0800469333,-1293409.2633436222 L -576424.9101836265,-1289566.1418394654 L -580642.2131928056,-1285303.515067333 L -583778.1732636179,-1291961.2698547104 L -587002.1479413273,-1292215.5078141268 L -589441.6213468688,-1283552.2735351983 L -588703.2824872136,-1277353.334364297 L -597278.897294536,-1274909.8459726223 L -604100.7052667647,-1276250.3883250735 L -605929.3421285877,-1273204.8406320787 L -612293.2675062064,-1273355.3363766465 L -615859.1243983697,-1270497.0035811912 L -617068.1234655553,-1265712.4112641045 L -620597.8441460094,-1267063.6370368048 L -623697.1466829432,-1264478.023031986 L -622736.8285197549,-1261044.6941808495 L -628612.2639426613,-1256325.9287878142 L -632243.7826487356,-1246064.7682753308 L -636518.5202420892,-1249454.3442044172 L -647859.8292071595,-1241541.608424069 L -648080.7980215473,-1238699.072568665 L -643545.5638730762,-1237286.838853277 L -641928.9975699445,-1234840.5483626127 L -645903.7065432937,-1225552.0064160025 L -645453.9429636431,-1232586.7269610444 L -648869.4630694395,-1237361.9269054658 L -654357.2370793237,-1240337.5563838184 L -659165.3508100923,-1238724.8343792683 L -658721.3386146472,-1229500.1327117314 L -660660.7788575244,-1228375.3108568958 L -662584.4463432529,-1218369.8410771766 L -669576.7800567945,-1207932.0328354128 L -678889.7403654361,-1198634.2083014012 L -681338.8003097643,-1199414.4347494694 L -679148.8857908221,-1202936.1487678082 L -680092.0432570032,-1204942.0713851603 L -677101.0351095964,-1211026.1430609664 L -676178.4695856116,-1217208.7584243026 L -668607.6057089196,-1225885.5739466152 L -669241.8577910366,-1227849.8913630056 L -667104.248720061,-1229673.7121710537 L -668558.6290626464,-1231161.7199373743 L -671609.5482063671,-1230121.270323843 L -675932.1865767782,-1232187.868242537 L -666885.6949223216,-1233422.044566752 L -662885.2732707591,-1240296.7308654157 L -663433.7971575003,-1243636.264514439 L -669925.3130433637,-1246425.2476856816 L -671860.4483858198,-1250354.6109871026 L -674892.5160200646,-1250204.1452316246 L -678338.1057810232,-1253874.2399208623 L -689572.53973612,-1248089.4174933038 L -690860.222636614,-1240731.3067524002 L -693271.2268014501,-1239355.3947548657 L -693344.4599492886,-1234642.260262136 L -696114.5501277422,-1231321.807369245 L -698555.7314881379,-1224161.3763250897 L -708398.058606506,-1217363.244935034 L -709688.175466278,-1212584.3301684395 L -714359.1076180023,-1208486.950037784 L -718073.1703778857,-1207417.580498249 L -718789.4980601298,-1208973.397232448 L -716466.426798624,-1213723.4385934642 L -719046.0163237312,-1220379.9009849082 L -718819.3777048945,-1236375.4439110714 L -709786.3490452691,-1243721.8911875593 L -708968.3401717014,-1253311.2034942564 L -717704.884501837,-1252865.0507714516 L -720707.0648579978,-1254295.722902517 L -722151.5948504087,-1257546.4348722107 L -717723.0409261499,-1264247.8609724368 L -728258.0088490236,-1267694.4275753086 L -731032.584593113,-1269247.7246601747 L -731175.2487689991,-1270945.5111034142 L -736170.7570242481,-1271389.6313723302 L -721682.2246483052,-1275192.390183287 L -721329.2003061181,-1281679.4366663008 L -724074.1392821466,-1283383.9474280071 L -727615.1849322382,-1283214.656001503 L -733216.6194125374,-1280154.1622548054 L -748050.3115256146,-1279650.9594514535 L -750411.7293010945,-1286184.9976976162 L -758094.3680780305,-1289966.3638505249 L -762684.0349232208,-1289397.6110249918 L -766633.1464899261,-1286834.6166008897 L -776324.1900822753,-1285572.1110507634 L -775892.3612272698,-1290457.5513362486 L -781219.9901862104,-1291390.866963652 L -782867.3546108553,-1289351.1457600275 L -791613.2676834919,-1294708.3748081329 L -798401.0875758711,-1294280.6748054386 L -806586.2363145597,-1301400.1347844845 L -808001.2562687072,-1310116.2392379523 L -814078.4350190052,-1325801.6937458692 L -816182.0398326154,-1327170.5002919934 L -828898.0203299468,-1322870.6920613626 L -829345.2748600597,-1320301.2748691242 L -835900.8676696592,-1318320.7561398859 L -843297.857920919,-1313021.9367405993 L -842949.8618836955,-1309831.2750827968 L -851743.5269880324,-1315782.2008631062 L -864423.1077223456,-1313793.2262402833 L -868282.4100148906,-1316131.025436414 L -872524.9157100787,-1316276.668925049 L -871684.1816623956,-1312363.862942587 L -875729.9597292499,-1312019.8850553415 L -878456.5610742207,-1309647.366219779 L -877801.3619012401,-1302691.4848664405 L -882183.2965255388,-1292381.5345331726 L -889475.5552833439,-1282454.1716732515 L -892351.4690146819,-1296202.8456789125 L -891713.9878752558,-1304182.9354298415 L -889255.6207436713,-1309905.769506068 L -892003.0231377434,-1309120.1604265736 L -899073.2859229018,-1311003.440331245 L -905912.5155188501,-1308558.6654135522 L -910003.4192816011,-1310283.805980411 L -913740.1674371143,-1305174.1640632658 L -926239.3011501689,-1302090.523514563 L -930045.5450923393,-1303439.7565593852 L -931906.2511406693,-1301631.7643268728 L -931470.967409263,-1298779.4329298374 L -957400.0149559902,-1277859.1185942665 L -955507.1849536895,-1272560.2226987872 L -957416.7128486381,-1271206.3155103554 L -960757.372049212,-1276620.6689027133 L -962662.7860118251,-1269927.3172164497 L -967544.395865546,-1270617.9805506316 L -969350.7646462853,-1263044.2848598543 L -976189.033119221,-1256303.7152525636 L -977577.4474573554,-1250986.1869591728 L -978442.3470166957,-1253724.3030638841 L -982889.826274141,-1253199.7814196034 L -998781.1690592362,-1245122.852941691 L -990923.8705688411,-1237061.9938209513 L -994839.1661949045,-1234820.429888239 L -1000637.5998689157,-1226009.5214447428 L -1011813.572126038,-1224204.6619822888 L -1018074.5801113539,-1224912.4094973523 L -1021350.48256993,-1226864.5840964445 L -1021383.6604454108,-1229623.4782263483 L -1039122.5608290299,-1233922.0532955853 L -1044692.2716147612,-1232716.319003124 L -1049870.044022429,-1236924.0712569247 L -1057868.7634727396,-1231764.4269690365 L -1061454.6579388638,-1231701.3985015485 L -1065386.2700203382,-1227759.948539069 L -1065388.98744302,-1225181.785140959 L -1080847.9194216416,-1217780.6722422868 L -1081826.5246243975,-1215820.378815483 L -1088870.0760466177,-1213786.2902673287 L -1093546.9895094286,-1208825.7485181554 L -1095071.7291699788,-1209309.519632032 L -1099582.721153849,-1205969.5761074133 L -1101809.094082518,-1206812.7648086592 L -1102349.9167845922,-1204550.3808727367 L -1105350.5396525734,-1203659.428310945 L -1108095.7713328465,-1204604.9568468858 L -1122685.4946460214,-1196241.7701047414 L -1128608.50428808,-1201952.1302287986 L -1132173.586998385,-1209345.0953074123 L -1139825.0488492,-1216674.9776212494 L -1141544.240607822,-1216369.174602617 L -1145891.4371569802,-1209962.4136174736 L -1157174.2082080466,-1209100.7706523933 L -1161051.5321374158,-1201949.7122664284 L -1166763.9609317938,-1202906.7174949148 L -1170431.170488572,-1199861.075496835 L -1174450.6645329173,-1201917.2178080413 L -1184585.74053676,-1202409.5545750093 L -1193821.0437848717,-1191415.7088115595 L -1196409.9757064169,-1183059.0092622002 L -1200907.683381478,-1182713.7948000117 L -1202563.7084205006,-1185167.0527924553 L -1205896.9440568872,-1184737.4205435407 L -1206971.9754312965,-1182526.8890835554 L -1210385.9442890363,-1181759.0361590255 L -1216780.5130667612,-1176455.3339314328 L -1226125.8035285687,-1173910.3340585053 L -1225946.538059437,-1171271.635130511 L -1230165.1307899163,-1169833.5284439882 L -1233886.656392705,-1166120.1466545865 L -1248155.898635526,-1161051.4814222602 L -1248672.4705183238,-1159215.6263443865 L -1245903.1473273325,-1155414.3233300233 L -1246419.0066847182,-1150152.290427939 L -1249601.7749148572,-1146715.0101879041 L -1251938.6070630099,-1146000.7248441784 L -1259365.573665882,-1148619.9138751447 L -1261474.3392358236,-1147121.7786567803 L -1263398.189907521,-1139528.2744865236 L -1260102.803919458,-1134367.8123789618 L -1261278.7874800207,-1130480.01086588 L -1260025.794871068,-1126481.1554551257 L -1266595.764067871,-1118140.9467169116 L -1268009.8532195096,-1107865.6112990747 L -1274150.5118209664,-1108252.2463925267 L -1279480.773214859,-1110766.5234499185 L -1287619.7682520968,-1118051.4072026045 L -1294484.0423330802,-1117500.5191315 L -1296864.9775624524,-1111036.7007600702 L -1299219.8454475512,-1110825.5123570447 L -1309023.7739452526,-1102244.9322459928 L -1311197.4761230045,-1096286.0519616643 L -1309682.265848596,-1094844.1131790797 L -1313048.3416475821,-1091884.2010826424 L -1314807.4457208097,-1087387.8240824002 L -1317087.4581964458,-1087410.6631447389 L -1326195.487362508,-1077086.3526043089 L -1342913.8865665076,-1069349.4080458023 L -1348549.6851495625,-1059825.02881545 L -1338251.1716869902,-1045050.8726110589 L -1335340.9309296284,-1045455.5968832257 L -1332828.754642008,-1037834.371688412 L -1333895.3856003373,-1029869.1642147503 L -1331523.5763260091,-1021132.4096421856 L -1341280.3292080483,-1019811.6028181326 L -1346427.5974224454,-1023814.4471007134 L -1353608.5775111998,-1025972.0341313946 L -1354221.9447761748,-1030533.4685886949 L -1351573.3622737147,-1044680.8264077952 L -1352363.8155798938,-1050128.2956219541 L -1348809.473303523,-1058812.849452441 L -1349919.5653713138,-1060486.147462372 L -1358197.0862604398,-1061622.866253268 L -1362301.9181984146,-1064400.917572761 L -1364536.5764185467,-1063022.7609849793 L -1378507.7968741532,-1069476.6011073838 L -1387534.0206635683,-1065258.2348437745 L -1411274.035675869,-1073603.9385613273 L -1416603.5182472926,-1078844.6926996817 L -1419998.0557920465,-1070156.8026541078 L -1425574.6429226198,-1074582.1181695259 L -1431581.2641311444,-1073550.1477526654 L -1432906.5002610479,-1071731.5612783674 L -1432106.6216246993,-1069440.6702585705 L -1435959.9949938033,-1062791.2326838416 L -1432930.9873375022,-1061444.3095505186 L -1433125.4507577957,-1058227.3563807202 L -1429563.4838941807,-1056756.7271991167 L -1426842.8381684588,-1050562.820903103 L -1421498.6814322644,-1048948.2035617295 L -1423653.9797941279,-1043001.0603630408 L -1424008.800028429,-1032711.3029306437 L -1420874.8077046878,-1030514.3115655454 L -1421148.0570906284,-1024318.6582645705 L -1417388.2572212566,-1018139.7023135691 L -1420474.2060355123,-1009513.2389154627 L -1419848.08760173,-1004774.4277424302 L -1422024.321147755,-1000924.6238509448 L -1420225.8166705791,-998457.5107699855 L -1415222.021888788,-997765.451112953 L -1416987.7297091372,-982197.6659292822 L -1422957.3933405888,-977178.295438188 L -1425721.8431773644,-970516.2657234675 L -1427816.1986321425,-969277.8487747861 L -1428778.7185962012,-966709.9859438551 L -1426804.727488134,-961967.6743159352 L -1428459.6299298161,-960618.1766470168 L -1433232.7893531388,-960931.0496949062 L -1441263.1561610799,-966983.2548219879 L -1446110.4936037932,-968699.4112232099 L -1446288.6062878214,-971147.4780045815 L -1448272.8518240706,-972482.9291593363 L -1448105.4385454294,-976488.5143875071 L -1450138.3719868301,-977106.9326107169 L -1449416.9284745315,-983592.6551558684 L -1452522.3538343941,-987751.8850497446 L -1459900.7750356547,-987242.6029971414 L -1464117.3192728793,-988708.8350995269 L -1477611.6939959854,-972220.653359944 L -1476435.8144505292,-970487.8342734689 L -1482060.3346093877,-965438.1206432462 L -1483265.6465992697,-960834.3598813107 L -1481056.392335863,-958843.9382670159 L -1481399.9056853536,-955747.9900469189 L -1483661.9381652197,-953735.4934345797 L -1483137.553145122,-949061.662707842 L -1487311.8852454182,-943220.5671259414 L -1485002.597540606,-941075.5041784717 L -1471968.1769942571,-944765.4511139815 L -1465749.7063851564,-942684.1123526605 L -1458081.6184139256,-944392.0469684374 L -1456839.2064620676,-939342.4292199104 L -1450072.8199748776,-932578.4221316773 L -1444102.0177182807,-937465.2896434871 L -1439379.4913134915,-929647.3516402765 L -1439788.3543930338,-924214.1019654322 L -1438141.6283633702,-919357.1998802446 L -1442477.208098168,-916298.6013026696 L -1443761.728741279,-902815.0783725545 L -1452789.0441854775,-897559.0838610494 L -1466369.450759756,-885127.5249273423 L -1470434.9054648592,-883096.0773946819 L -1471589.723927243,-887012.4729526663 L -1476377.8673140805,-891393.4144358987 L -1487712.213356373,-892505.3598755539 L -1489119.097712558,-889466.1663375474 L -1486283.7379004892,-883206.2315656542 L -1486967.7069976546,-880829.7445170941 L -1488231.6352235314,-884072.4542741048 L -1494612.4742384735,-888564.079951786 L -1510210.3874938777,-882501.697327319 L -1513267.4473628711,-883158.1211526063 L -1514357.305653096,-885797.1520798861 L -1517192.6908993807,-886540.9568743743 L -1515884.502601739,-892725.2950947344 L -1517568.3194319427,-895830.5669765649 L -1520663.7101524498,-896962.325258186 L -1524865.1545322607,-894875.6916336613 L -1527985.0193022718,-895426.6792406267 L -1529899.4720959675,-884911.915113674 L -1534357.2141617967,-881992.7119365514 L -1533990.83785655,-876458.221373949 L -1529832.778118045,-876338.2063876556 L -1526781.2988115323,-871824.4874060394 L -1522720.2819970492,-871758.8730375781 L -1517640.3881219355,-866100.8665259867 L -1508034.812691498,-867501.6438125554 L -1503535.0519454672,-861803.8888201555 L -1504540.7871335496,-860839.777616419 L -1507239.2956921232,-862076.2683925702 L -1510005.4902105029,-858409.1538242297 L -1516935.9070827428,-856929.0646922631 L -1526512.913047194,-850650.6150006347 L -1532590.32407359,-849685.5028149203 L -1536612.20779114,-852882.6215746182 L -1541819.8506070615,-851389.5745952516 L -1540066.279578516,-836084.4664629489 L -1542634.8911277778,-822521.2635149041 L -1549943.231578929,-803623.1547831747 L -1548597.4232364795,-801148.891221701 L -1549744.8289903807,-798681.3326656156 L -1539247.0264023133,-796074.3279367439 L -1536876.0335369064,-791552.7085063113 L -1538003.817617447,-787320.3060892491 L -1548085.377909378,-776434.3889701233 L -1557801.8075835656,-776976.8985184765 L -1558384.743236561,-779134.3816808513 L -1561341.1412036396,-780311.4154853219 L -1570053.767261256,-779324.8057970895 L -1575924.6392717357,-776284.6913017713 L -1576089.279429008,-774611.7241716441 L -1572177.091238533,-770595.176455702 L -1568294.834932905,-757622.8601696827 L -1570458.5014256327,-741731.4379480506 L -1572721.2615556477,-739759.1177809221 L -1585533.806381912,-737327.8188913313 L -1587910.9497610172,-738675.678421267 L -1590677.2350927428,-736880.5418957253 L -1595167.6818770117,-737691.4354926962 L -1597885.890959915,-735561.1865432122 L -1598957.8779463854,-731201.94343272 L -1610298.5809031397,-724044.8741928608 L -1608429.0255668676,-719271.6541988197 L -1608819.7944324906,-714181.8520430569 L -1603240.170419718,-711676.1165802192 L -1598900.8486741907,-705480.810642945 L -1601406.4250340497,-697244.8461724231 L -1595256.1938939712,-690222.0384958939 L -1590949.2253765394,-689507.043474372 L -1588778.8339613487,-686182.9423146736 L -1588117.121203986,-677966.6194128569 L -1591060.3028690007,-663449.9711255807 L -1594041.9459722154,-660773.179783888 L -1596185.6534496478,-651826.5179657247 L -1599978.4114307838,-646523.7789257062 L -1600662.8213391847,-642629.4065531354 L -1591365.9014903815,-638459.4317401786 L -1585770.4741300105,-633613.4283358083 L -1582941.5737416507,-627564.0783492747 L -1581631.189554138,-617396.8132031659 L -1575032.640812584,-619902.4047580282 L -1573068.028665425,-629502.1444087283 L -1564126.4316810665,-628959.4877302411 L -1560294.9714896001,-626595.2724407797 L -1555626.9489375295,-620157.2818508144 L -1551955.8665568728,-611168.3685347426 L -1546067.362400457,-610393.279409397 L -1541639.8383387614,-607141.9300155665 L -1538067.1595289207,-608871.7801178672 L -1535566.1571293306,-606055.0845017597 L -1535804.305058578,-598972.967059311 L -1533564.4331571932,-593162.7975328395 L -1537936.0752856894,-587061.9453851194 L -1550492.5444741244,-586429.5701860322 L -1556992.39941779,-578702.6746765305 L -1555262.7103919268,-576058.708937811 L -1572453.5885364173,-575911.0985857323 L -1572434.8738754087,-570769.6106246287 L -1575689.7903669751,-566811.2523346671 L -1571838.571837422,-560441.42245856 L -1571043.2463820723,-555439.9331688556 L -1569077.4317019586,-551863.3199000494 L -1565905.5266418643,-549936.5926150196 L -1556519.7910207717,-551540.1467583164 L -1552820.5877029845,-539379.3009141926 L -1549638.4242521394,-537650.9259781797 L -1548051.0959023952,-533345.5838377792 L -1541996.471919851,-528087.3983339819 L -1539940.9314017938,-529315.4089101611 L -1539410.5024187677,-537947.9400045071 L -1532893.021488478,-539215.8140849258 L -1529422.9499173716,-535234.0102427548 L -1527700.1343565665,-530136.2675298002 L -1529302.9729392366,-508728.55432320165 L -1532026.8806625823,-503299.94612158654 L -1535060.7087260487,-502798.7576371573 L -1535672.3230934439,-501276.6451591121 L -1539206.8662121359,-504253.8445347016 L -1542034.873397655,-504311.1530998542 L -1546052.9471755954,-502105.05045084044 L -1547941.2645586394,-502699.2524883054 L -1551314.8107775485,-498469.411392559 L -1547308.6156687823,-505235.593600827 L -1550772.2438192547,-505604.08659000165 L -1557080.527127519,-501846.883781886 L -1559103.0559561811,-502932.5830545581 L -1556609.3953599755,-513875.2828092388 L -1560495.8678251558,-515558.45558938425 L -1566134.2435591088,-507376.72547281726 L -1566689.5694858425,-503943.9463336073 L -1571434.2996448968,-507761.2750459969 L -1573857.6976048108,-507785.38071229996 L -1578623.4326019937,-502518.26069783984 L -1581815.9946154829,-502543.90513816033 L -1588914.0990386456,-488817.1778082275 L -1596367.250554822,-487079.50783783116 L -1599853.9801299078,-483629.95228316745 L -1606793.5006893878,-481177.580864639 L -1607572.2156526817,-479391.1325597568 L -1603936.6526673208,-473635.32450469135 L -1591754.0010955785,-470830.0158735885 L -1586759.461912467,-467300.8344168101 L -1580133.1706162912,-465429.800970018 L -1579295.4857148845,-462448.38432157564 L -1576183.731456792,-462279.90538903035 L -1584434.3202811985,-460229.844224913 L -1584193.3538785842,-462462.8989826333 L -1586169.3790242502,-462903.0158919782 L -1595646.6924459215,-457687.156363086 L -1605362.925909551,-436959.50510641054 L -1604321.6538751689,-433024.2148187762 L -1599697.291201649,-428372.7496861328 L -1592786.7756940126,-425091.5030236096 L -1585013.6749003327,-418639.5679159665 L -1579289.4522774275,-405715.3216474637 L -1580572.2554453693,-401268.7759833168 L -1578470.266294963,-399647.88038135826 L -1581485.7157728884,-396588.459539164 L -1582058.390057324,-388489.9379715896 L -1584796.5671254625,-385037.64607524 L -1584583.2598541365,-380773.22022210713 L -1581711.2172371936,-381292.2778487854 L -1585227.284751454,-378303.7393644728 L -1586907.9048705976,-374212.16352582263 L -1586609.4953021617,-365708.65083148546 L -1588946.4709054544,-361340.5300398964 L -1586264.1117916869,-354588.33531108405 L -1590019.489588309,-349254.22828306066 L -1587840.7769908763,-347322.7287005583 L -1589589.7453623267,-340050.5757476197 L -1593505.7615659367,-334539.6094088943 L -1593240.167058301,-330629.92328699515 L -1596629.3982827435,-333110.3562653009 L -1604683.8857430003,-328624.2352270572 L -1628824.9992208455,-327017.30465712305 L -1633289.5823211554,-324995.4655312753 L -1633076.9099849728,-322651.50949466473 L -1635738.5918895032,-322512.54593241756 L -1637460.241730075,-325759.30376447504 L -1634820.7915909772,-330378.85498146975 L -1635413.2262107725,-333481.05270756694 L -1639058.3909300754,-334736.29473100713 L -1640721.3966803742,-333173.81743769936 L -1641643.1542928733,-334711.8669703123 L -1642015.97481123,-339396.7152627317 L -1646690.335140766,-345319.4705317456 L -1645582.5366270526,-350678.1002200928 L -1648871.4845672215,-352489.48274066066 L -1653681.9121101778,-364572.106165675 L -1656669.4726719076,-361340.8835650257 L -1659857.2914673649,-361486.3374875456 L -1665973.2113335594,-357408.9789192819 L -1668715.0671192484,-353421.42255947355 L -1676085.123299379,-353524.7540304779 L -1676388.475967516,-350234.20766419143 L -1679823.585453509,-349707.4494567773 L -1685896.4744426813,-341581.49042718345 L -1689232.8027832976,-340429.18739377183 L -1694824.3695745205,-341731.3403739753 L -1701721.0764003687,-345285.2548021732 L -1706352.256469563,-349760.41861408815 L -1712075.0625389856,-350391.06096601405 L -1712699.602436758,-353007.073046264 L -1710205.8507501073,-360281.22257438226 L -1714128.060239318,-365662.5977986465 L -1712726.7215051416,-373154.52902530524 L -1715598.6902702043,-377129.01915419445 L -1712489.8292655423,-381613.99730147724 L -1712206.2331529553,-386766.22442372 L -1714370.3984498107,-392601.0924554439 L -1722824.4714811302,-396232.64331724145 L -1731159.8160662577,-394389.74842170684 L -1736205.4956504826,-395396.25191020186 L -1738650.8012212298,-402332.3684054657 L -1746949.0585210752,-404269.27848629927 L -1749177.6800561883,-403000.9203609501 L -1751670.2567250524,-396417.8341621104 L -1753200.2747865594,-381300.147363252 L -1752434.7845293037,-369876.8113126066 L -1748699.5462768653,-363065.7967224854 L -1752485.638357174,-352146.92510245164 L -1754323.8111543108,-352638.25044261053 L -1763840.9748828628,-361040.62272230064 L -1765638.7368004336,-365353.81274544535 L -1772534.1576509185,-367849.52740992676 L -1777413.4971754053,-366789.7904501672 L -1784870.300028505,-370586.99988930824 L -1786786.959034506,-375375.5814941983 L -1779118.6630824625,-393258.77407045563 L -1778101.6850227255,-403155.0745261572 L -1779441.3923899624,-408076.3625129478 L -1791120.0563345149,-418481.05918898806 L -1791608.512886838,-422304.26235757716 L -1794365.2933391416,-425611.6819803086 L -1801761.3548263838,-425128.00178399595 L -1805406.225824623,-427756.09147396864 L -1809122.2613166214,-427379.21914993593 L -1816173.8781536482,-432525.52886752854 L -1827950.1484234778,-437175.54708460235 L -1839164.166618563,-433869.4263983146 L -1845089.8449470615,-427881.06472265953 L -1847058.4482632873,-423890.73069668486 L -1846326.2383305368,-420725.2481810012 L -1853473.4575434404,-419613.2115600989 L -1859298.2975774046,-423618.7424770497 L -1862401.759436407,-422135.95873730624 L -1867672.7864040376,-423640.0523091628 L -1870085.4492800226,-426504.2414308988 L -1871582.3730685178,-433375.0447832829 L -1876910.871698378,-436569.68442319095 L -1884027.761374917,-449165.04792386806 L -1890480.1455286355,-451935.9603816187 L -1893960.195332088,-450742.6269220102 L -1895801.2073463148,-442373.7701545808 L -1895947.4919061891,-426733.96114966576 L -1909019.3062409374,-417514.47923215 L -1907929.8574335014,-415742.64631466084 L -1909267.7266568616,-410244.27197601664 L -1907300.222456782,-408535.8134462499 L -1906399.9297757747,-402614.2160814852 L -1912004.3542165004,-395958.70485802775 L -1909727.550265386,-379603.6935000914 L -1910960.20743577,-377213.95643761376 L -1910005.5372082675,-368881.36094562174 L -1913102.1520852728,-356323.06759877095 L -1908200.1020713777,-349136.09983437485 L -1909204.5443771607,-343497.9291806746 L -1905950.35564341,-337436.0001707077 L -1903847.440580421,-327715.0236643511 L -1907176.0291127744,-312019.3966606163 L -1906290.2215526877,-308295.5106780106 L -1902641.7847091197,-307454.95555505424 L -1896851.5389385594,-313702.10712810146 L -1893390.2965768063,-313513.7154489195 L -1900030.2372893211,-287078.55542572995 L -1895564.531483943,-284375.68129548925 L -1889395.7217532787,-287227.0593865405 L -1887676.4447124423,-277395.5879561179 L -1893898.061550642,-256118.95556616774 L -1895792.7667893693,-254645.8147372282 L -1895072.133503274,-252291.47071714755 L -1897730.0454803815,-249983.23239610487 L -1897830.3307389102,-240004.59459796807 L -1895561.498866132,-238701.58262227333 L -1893420.4153836877,-231531.38229067024 L -1895150.3191088836,-226571.4551300956 L -1898093.6741144713,-226153.90634531624 L -1899624.799425385,-223772.96658534365 L -1896719.622208006,-219874.29548875184 L -1898226.1256854483,-210162.74361772463 L -1897121.9403844916,-205023.2824044271 L -1900322.4915026843,-198966.9691362469 L -1902223.7727452146,-199004.22184300498 L -1904337.05490437,-201860.75233220207 L -1907089.1551003903,-199881.8569041778 L -1908798.8887401603,-203741.43031031569 L -1912302.2270064915,-203636.00873045472 L -1914949.989676521,-192014.1522405503 L -1918240.4364163554,-186360.0142797237 L -1921528.252274008,-184395.36321866486 L -1922093.3761967854,-181530.8924405907 z M -323833.3880031208,-1180068.9993736173 L -322602.6452374711,-1180581.723777313 L -324180.0301934442,-1178850.8320202131 L -323833.3880031208,-1180068.9993736173 z M -1863364.794317508,90774.21716562092 L -1863190.3304282723,90820.12871542046 L -1863243.4922748236,90827.21696162742 L -1863364.794317508,90774.21716562092 z M -859294.2123048069,661784.5659737954 L -859909.0575694577,663101.4436198438 L -860526.7844366473,662648.1666321107 L -860532.8517750343,662616.3368300161 L -859294.2123048069,661784.5659737954 z M -1598454.7715159224,-445026.2098134205 L -1598953.3503207702,-445340.0950763747 L -1598138.5856149157,-445922.0698662704 L -1598454.7715159224,-445026.2098134205 z M -1597080.4487605798,-447887.6730148475 L -1596771.8388781657,-448402.0228188692 L -1596199.7412689433,-448592.2390081573 L -1597080.4487605798,-447887.6730148475 z M -1594559.0726218142,-449904.77392586187 L -1593330.468444139,-452369.32056848094 L -1593211.898193189,-452398.9631312194 L -1593404.2090894692,-450570.12852887 L -1594559.0726218142,-449904.77392586187 z M -237367.09695798147,-722108.8617429686 L -233989.12848852106,-737077.8444833535 L -229744.9422026244,-738653.3178014102 L -226012.9461320952,-742961.8689980789 L -217971.52267835027,-745583.7640450018 L -219281.78813675934,-738785.929837681 L -216275.6760548683,-733942.447538534 L -218563.52692168398,-727451.0447785595 L -217865.1127515231,-721832.9139788258 L -222526.46431015796,-714215.6913730064 L -227543.97928451112,-712505.5614263816 L -232491.17230326004,-715617.377387637 L -233372.3613791483,-720666.1458867855 L -237367.09695798147,-722108.8617429686 z M -280673.15674463107,-906835.1967635418 L -273612.2776602014,-908175.0000001134 L -263384.3543077821,-906159.3868567767 L -259452.47496104694,-897586.7386014565 L -262523.6832980786,-892866.2277661167 L -261747.45925914252,-890749.8384084727 L -279570.3746410618,-877137.2772736571 L -292133.2246651023,-871688.8465256961 L -298023.4149821875,-865005.1063544628 L -300949.952511657,-863436.2240901523 L -306365.75733623916,-864591.7789216022 L -304323.4105955905,-874341.1308757863 L -305768.42022447096,-877956.4859712931 L -303064.77649926004,-884677.8397239491 L -297029.37478848605,-892877.3414929664 L -285477.6032320092,-904063.2201543156 L -280673.15674463107,-906835.1967635418 z M -401621.3501598401,-1067096.231703504 L -399700.38498595584,-1073147.2543088952 L -400325.0000001597,-1084900.532593983 L -393770.07064689667,-1098557.2617811686 L -392989.1720347204,-1105270.2062366593 L -382396.52330930094,-1135303.6093242024 L -383481.7008538843,-1139299.9090409568 L -380226.75101072754,-1146070.2470800444 L -377019.21853220137,-1160604.8878270558 L -370557.3427385867,-1164409.1393849922 L -370776.0420188711,-1167179.8219409375 L -368497.7261199839,-1169389.2054108211 L -354068.7996695325,-1176994.5677407961 L -351907.10678138206,-1170467.8932194556 L -345664.12861187465,-1168175.0000006305 L -342657.106781368,-1163967.8932194284 L -338700.0000001736,-1161675.000000603 L -338116.9828503768,-1157929.926932002 L -333865.181513641,-1157050.9679516817 L -328566.0166022295,-1153333.887735353 L -325151.1081985026,-1148548.8866603377 L -324648.6832982018,-1143733.7722345162 L -322923.52242095745,-1142735.348587494 L -318950.00000013836,-1131260.786438121 L -318373.8795326435,-1123167.3165681043 L -316195.1871794327,-1122589.0950513599 L -317881.9949583606,-1120662.4712377088 L -320222.3665962263,-1108645.1778722974 L -326174.17396486097,-1102078.1132246554 L -330852.9640211998,-1087936.249541679 L -338970.1609213352,-1077120.7431159893 L -348771.85441523715,-1057642.3591475799 L -360013.0391961276,-1047300.118892407 L -383499.8161576673,-1037593.6396537675 L -389517.9469540286,-1035930.276035193 L -396153.39993285213,-1036739.4572104501 L -400325.00000012974,-1043089.2135627109 L -399328.4542418909,-1052633.045480212 L -401246.83321871504,-1060595.2655857285 L -399952.2363325124,-1065491.8405835095 L -401621.3501598401,-1067096.231703504 z M -327788.12124709523,-1065509.208717212 L -326385.77177567186,-1063690.346781015 L -321867.00934816035,-1065600.571305202 L -320593.7538793689,-1064691.1601496732 L -329100.61405953096,-1059227.1591695999 L -327788.12124709523,-1065509.208717212 z M -320159.4889255897,-831318.2748198026 L -323654.9609924015,-800285.520587985 L -327424.8848563841,-806596.9405611012 L -325222.8448376692,-807154.1709001976 L -324009.4680235016,-809916.2444864414 L -324765.38342066424,-819784.2143401029 L -321177.12544819,-833147.1425839728 L -320159.4889255897,-831318.2748198026 z M -323105.8908395774,-1157181.5319521413 L -322065.45949658996,-1156975.7673323855 L -322878.694436521,-1156741.0586254608 L -323105.8908395774,-1157181.5319521413 z M -341712.5223065181,-831371.6759824014 L -341944.3639301502,-831032.8911360427 L -341732.7761053693,-831425.6861126705 L -341712.5223065181,-831371.6759824014 z M -341514.73592143,-828360.2493628579 L -341432.4390495793,-828322.4953731565 L -341514.73592143104,-827859.288448186 L -341514.73592143,-828360.2493628579 z M -457588.4099272847,-1014929.4099089797 L -455785.1154503317,-1013385.5499271804 L -458859.44932429784,-1013340.3342640795 L -457588.4099272847,-1014929.4099089797 z M -477097.90222967806,-977725.009655309 L -468971.1202951235,-994376.922321206 L -465596.14808568865,-997611.6197359205 L -465120.13868395356,-1001058.2795963966 L -459529.79934252665,-1006187.0066767536 L -464385.14653033763,-996044.950382881 L -470582.6998010805,-990098.1517714453 L -471011.30593713204,-983607.6120859506 L -477097.90222967806,-977725.009655309 z M -464753.2414689255,-1018090.0986593651 L -464086.1060726383,-1016438.054589459 L -461586.4612435458,-1016157.8152384055 L -463435.7404616329,-1013892.8026614906 L -466559.5782860463,-1015171.7331204729 L -464753.2414689255,-1018090.0986593651 z M -462606.6827959697,-1010541.0616226394 L -462884.98209628614,-1009520.2873124381 L -465149.2746820662,-1009926.1360751317 L -464996.1727717408,-1010612.0953599443 L -462606.6827959697,-1010541.0616226394 z M -499778.13323507813,-996925.4797260565 L -499878.5487549013,-999837.5298008414 L -498717.79030144017,-1005215.5804065216 L -499185.446120976,-998272.433867886 L -496786.4587068454,-997154.8809896387 L -499778.13323507813,-996925.4797260565 z M -494459.2520656651,-994944.8610652057 L -494499.1686548097,-996724.8768205717 L -494092.7970252779,-994615.0515288586 L -494459.2520656651,-994944.8610652057 z M -696056.4937537486,-1164478.112996556 L -694284.6143283828,-1164416.3583885916 L -693558.1234101998,-1164754.3830765549 L -695275.9527299057,-1162956.726113576 L -696056.4937537486,-1164478.112996556 z M -689983.6930505618,-1169225.1230957345 L -690252.9359883334,-1169378.297627734 L -689701.5093759345,-1169928.8214777259 L -689983.6930505618,-1169225.1230957345 z M -709732.2389375637,-1179566.8440080236 L -706356.5211655528,-1184332.7875842613 L -707582.6113012205,-1191024.380258056 L -703490.9580015641,-1195161.498797542 L -702411.3979171908,-1193509.2020313311 L -700748.3468221942,-1194486.0884866917 L -704174.7680653429,-1184924.92148938 L -709732.2389375637,-1179566.8440080236 z M -704220.0681312402,-1175711.9675361998 L -702313.3040871628,-1175059.879019039 L -706386.1679977477,-1171557.6886333819 L -706558.5435745411,-1172083.0442288 L -704220.0681312402,-1175711.9675361998 z M -742232.5220025552,-1217635.6683064993 L -736639.1405513946,-1220174.2849161248 L -730656.9064841894,-1229018.5615369028 L -726719.6703192822,-1218889.7406146044 L -728773.6832980509,-1216741.227766015 L -728772.2243622658,-1214287.0341836405 L -735490.3876846224,-1212516.4161576205 L -738613.0128210282,-1209303.018979078 L -741314.0033690071,-1209483.3700947566 L -743438.2952942803,-1211751.5015559737 L -742232.5220025552,-1217635.6683064993 z M -759203.9897203806,-1239510.871481246 L -755873.949464995,-1247427.4049815196 L -752070.0101009369,-1250440.615808483 L -749142.888828719,-1251042.2674621397 L -751385.1654325258,-1243853.4053655525 L -750100.9518335755,-1242179.8724093304 L -747299.9396510568,-1241637.7674902638 L -744856.0281897929,-1243805.218681297 L -739710.7908897738,-1244190.0684364785 L -739434.5659336107,-1248992.5423883817 L -737319.0528190702,-1245299.1751661545 L -734413.784370248,-1244640.6153922123 L -737493.9208191785,-1233912.9094479466 L -740461.2495412917,-1230577.964021081 L -745207.7509689517,-1229019.2514898162 L -747831.3423806742,-1230717.080181926 L -757277.7625122884,-1228511.8771600837 L -757229.3919040732,-1238057.9105719381 L -759203.9897203806,-1239510.871481246 z M -743175.1006149668,-1191088.8514241069 L -742587.2820554599,-1192068.5490232867 L -742529.1948977078,-1191428.8461903974 L -742148.8194551191,-1190622.4297051465 L -742053.3927352407,-1189990.2869542078 L -743175.1006149668,-1191088.8514241069 z M -749071.3744257159,-1200236.6896592807 L -749064.6116566644,-1200297.554580746 L -749061.0742082371,-1200271.0237175426 L -749071.3744257159,-1200236.6896592807 z M -750917.8095268066,-1192382.9836957853 L -751950.7249495487,-1194855.162582888 L -750319.3277103445,-1197365.0700113538 L -749659.5543684327,-1195798.2476970893 L -750917.8095268066,-1192382.9836957853 z M -784979.1988361683,-1229652.2603476243 L -784828.1119300642,-1237148.5700681945 L -782158.6956944827,-1235033.4146071079 L -777652.0669744817,-1242024.210270242 L -776327.2650979903,-1240120.466085424 L -778538.9121687721,-1231323.28026402 L -780283.3366348458,-1228877.1678445656 L -782106.7413715103,-1231428.5493226754 L -784979.1988361683,-1229652.2603476243 z M -800686.116585522,-1225899.6698521061 L -797353.3391456462,-1232059.1491814698 L -798771.4287690371,-1235494.3794623038 L -796560.390858457,-1237751.8181419245 L -794094.1282182559,-1234481.851234577 L -791647.3604649552,-1233943.3269468953 L -790574.1033189008,-1230314.2599585347 L -788553.8103377431,-1229396.5526979868 L -788865.3258248391,-1226147.2859148441 L -786747.9977493279,-1224274.0468992242 L -792675.6332083449,-1215550.0000000005 L -793436.7429295345,-1218516.6975127961 L -798616.1715796033,-1219337.3845073585 L -800686.116585522,-1225899.6698521061 z M -843880.4064608231,-1298621.6850025784 L -842676.1288260709,-1300846.6662484698 L -840759.7489437582,-1300759.1595262128 L -842222.2160608053,-1298920.807684656 L -843880.4064608231,-1298621.6850025784 z M -975705.98152429,561201.9689747759 L -974276.1204678136,558707.6834325512 L -974200.0000003269,557423.8869345438 L -973466.5909719276,558052.3774094176 L -975705.98152429,561201.9689747759 z M -973677.9820037796,555360.0336396322 L -973344.4193246322,554271.1161353242 L -973200.0000003178,553549.0195137641 L -973200.0000003175,554169.3033792563 L -973677.9820037796,555360.0336396322 z M -972450.0000003141,549732.5124380664 L -973602.8196025585,544070.2489644677 L -972211.5407160085,537277.5778748239 L -965973.1070906464,529910.9279989848 L -965841.4049281906,526123.8520905309 L -961264.0386532443,523428.4805037661 L -955914.705426549,523918.04765772226 L -955878.4077060608,517211.87218662305 L -951292.3452854244,512946.6721602487 L -947820.6942288368,513906.6152820316 L -936923.3592452231,509908.03412471653 L -929020.2998039958,512032.05029445945 L -925675.0711997162,506761.0368724501 L -923094.4193245146,496646.1161352521 L -925167.8128285863,474253.2534183248 L -929290.3141006803,462518.5899859929 L -930825.4421265415,460008.88544472033 L -935056.5381548482,458790.08861805627 L -939237.6443242455,462712.66383094224 L -940692.6434286013,449665.7925312652 L -948154.9016130235,434667.8458490746 L -956813.6963051704,424843.01624155615 L -963865.0302857021,424658.2326691748 L -967654.648485797,429873.34219645907 L -972797.8723664135,424329.84978636284 L -971776.3545496308,420212.9361729305 L -968084.3872018245,416943.7480755556 L -962221.7805042331,414744.2457789402 L -955437.9017773843,414819.0237193299 L -922986.1549983278,427124.78902278293 L -914898.7163569673,431354.5443424658 L -908871.4761248403,436697.037530031 L -908776.8223172146,438596.33433659974 L -914330.1193248329,442906.02878411603 L -916096.274535028,447174.53113368544 L -916317.460535065,454272.34019636794 L -912703.2962841899,458908.70932925947 L -907298.1587008475,460205.8459036938 L -893400.2800491339,457005.7596536627 L -885098.7081789434,459631.09936178214 L -860679.4219598031,478615.99449439824 L -858939.5843761922,484768.51241730666 L -872418.2831048415,506504.06954240345 L -877825.0000001629,511845.67515550955 L -880891.2277661802,509876.31670204445 L -887032.1067813592,513992.8932189135 L -887258.80601775,517423.8690201398 L -891259.7416491631,524049.3368358476 L -890200.0000001799,518200.0000001053 L -891824.3026542353,517075.00024325034 L -908879.700196429,528367.949705781 L -910955.3198163316,531257.3309923664 L -924926.8277933642,538746.0382511863 L -931000.9643997677,538586.9365996558 L -947004.7001964968,548867.94970582 L -948615.1815137507,552575.9679512633 L -949672.0440542476,553187.8456109876 L -950842.9553066303,550955.7457904349 L -953112.4287340766,551664.0101321957 L -962765.2627095692,558999.822242163 L -966394.5395785961,556825.0000001801 L -967242.893219122,551867.8932189905 L -972450.0000003141,549732.5124380664 z M -904483.4917357983,-1279841.24106906 L -904729.6599893377,-1279986.6367954412 L -904359.087947908,-1280108.3590361394 L -904483.4917357983,-1279841.24106906 z M -914886.1005627228,-1281410.6056610066 L -914746.3278013916,-1281869.8590196664 L -914663.9438906219,-1281674.1972315882 L -914886.1005627228,-1281410.6056610066 z M -1051775.8355054376,429731.68142697494 L -1040425.9750408969,430921.4098188146 L -1022636.4494694276,437875.0728747057 L -1019044.9123877604,437091.51422354445 L -1011593.3365686239,430061.84909655974 L -1004631.6162176579,437833.0974380524 L -1002121.6000167552,438709.5500530741 L -999013.2902653989,438738.8242238638 L -991478.0729414739,434239.614117939 L -989478.8566967464,436178.2440011381 L -995611.2631446897,452117.74050959427 L -1003398.7681799456,454708.2322779525 L -1004513.2914611197,451187.9416971953 L -1008634.8301554938,449517.0121285421 L -1010234.8700838839,450935.066081482 L -1009063.1243717998,456524.70724286034 L -1014606.782355075,459523.62731513876 L -1020367.69056231,450456.68100372545 L -1030755.6019099402,444688.3278270735 L -1033409.146360408,444672.41546182166 L -1033773.2072272222,448451.28224837943 L -1027746.5763694645,462391.5528621336 L -1029101.8942451812,463359.9776277541 L -1031747.81052161,462481.55306762044 L -1036591.3938076091,449158.5701074106 L -1044147.8696749463,441571.52669442125 L -1051775.8355054376,429731.68142697494 z M -1087153.5612255107,439944.0871827078 L -1083415.2941640117,435994.75060845935 L -1081335.3808354614,444204.29141431727 L -1076845.1192296576,447570.1990331005 L -1074653.202534788,446902.4578968556 L -1072384.839268286,441616.31749016576 L -1072902.775184138,425704.90060809685 L -1071373.2386134637,422134.3573073077 L -1067139.8731211612,423810.0838830226 L -1057752.8834807381,437756.1363979782 L -1060026.3596779238,442517.06568811793 L -1068120.031276839,440962.7719796447 L -1074680.7396126087,447990.1089569748 L -1074755.4621476494,451757.6632790294 L -1077128.461387085,454732.5319158098 L -1086499.4161241222,450048.5863647216 L -1087153.5612255107,439944.0871827078 z M -1161544.203809445,497136.38783090084 L -1166066.517482574,497667.3984512293 L -1167053.5554465707,502134.4216502631 L -1172109.9229718286,494859.38158009865 L -1172338.6210978997,490130.0178706627 L -1169295.772185685,482186.15634786733 L -1165500.305955853,481842.8007403366 L -1163006.1720593737,477470.2543819969 L -1163787.9156704023,469879.84006279125 L -1158910.9397687728,458569.54226910986 L -1153675.745778709,434505.83218226966 L -1144207.2457080793,422245.3690731089 L -1143045.9176016399,411952.5162973508 L -1135659.4824709438,394865.51704883814 L -1121575.9679516116,376490.18151364615 L -1108813.7504591767,367727.96402123646 L -1087121.2081841489,358304.82845247374 L -1078566.0547029376,357693.5733014582 L -1069446.3323379185,360407.8254645347 L -1060675.0147829473,369367.1425406954 L -1059558.3949615408,373987.6329123432 L -1060952.747999244,379948.3094511279 L -1069808.550819472,396240.25945370126 L -1078693.8971784036,395232.96923639934 L -1080806.9814902714,397663.01448433584 L -1081234.290048517,401260.9291710494 L -1098356.6688414528,414076.30630689714 L -1104035.7628459074,422385.45771351294 L -1109032.0502948507,426145.29980397166 L -1117898.4055082158,442237.5550229229 L -1140764.716454181,473067.4183361468 L -1151702.9999054691,484539.9514355636 L -1157013.4358391494,486383.71395243204 L -1156883.0677645893,490325.9018078132 L -1154058.4485198946,493338.3583862063 L -1156720.2707429023,500071.2798770832 L -1161544.203809445,497136.38783090084 z M -1187711.128348749,307600.90088739456 L -1180241.8883894575,302457.23944529047 L -1175950.6786099728,303313.5475275381 L -1182982.3080051672,304803.06287268497 L -1187711.128348749,307600.90088739456 z M -1264981.0249879728,-1084901.5591212297 L -1264071.662281918,-1083962.371773852 L -1264805.8893923718,-1083328.9788866474 L -1264994.6968739037,-1083366.0280563831 L -1264981.0249879728,-1084901.5591212297 z M -1374570.6536297745,-956870.2887897368 L -1374910.3024944155,-956551.6848170146 L -1374408.1772287616,-958099.0504315771 L -1374570.6536297745,-956870.2887897368 z M -1374200.6752616824,-961443.6833335379 L -1374957.984957859,-961504.5941742108 L -1373993.7086355577,-961931.5332379745 L -1374200.6752616824,-961443.6833335379 z M -1373120.695496297,-963216.9354266712 L -1373274.6567752515,-966074.888635094 L -1370826.020805134,-967320.3018615181 L -1372120.3842209643,-964207.1425477099 L -1373120.695496297,-963216.9354266712 z M -1497868.7641657854,-868039.8067880359 L -1497465.8472427563,-868070.133868264 L -1497563.4896195387,-867930.6447585782 L -1497868.7641657854,-868039.8067880359 z M -1495049.0797385976,-869545.4237100609 L -1494447.2758551522,-870614.9399677475 L -1490128.3184472832,-871778.1363811343 L -1492245.8426245307,-868490.4028747716 L -1495049.0797385976,-869545.4237100609 z M -1510942.8705198418,-789772.051820059 L -1510369.5254183148,-789882.8654670785 L -1510949.3348871078,-789156.5854630361 L -1510942.8705198418,-789772.051820059 z M -1517517.1536617742,-615545.2391756084 L -1514677.4376500836,-620343.9344064246 L -1512190.7227684928,-620503.9297238904 L -1512535.8711894162,-618376.4853492717 L -1517517.1536617742,-615545.2391756084 z M -1518840.5986106745,-643891.8966957008 L -1517558.8042930884,-645163.0694904849 L -1517404.0874383086,-644098.4526681767 L -1518840.5986106745,-643891.8966957008 z M -1519800.170547484,-638741.1269400837 L -1518945.6440968665,-637692.3899325086 L -1518821.2457364248,-637393.833867447 L -1518901.5888995237,-637457.4388715664 L -1519800.170547484,-638741.1269400837 z M -1530012.190080931,-780260.5364067813 L -1529198.3247336962,-782370.5368216938 L -1526188.9217999226,-782666.805991419 L -1522630.899005484,-785541.3978857982 L -1519184.062246271,-786563.6231161327 L -1517644.438036256,-785537.2438914205 L -1528244.307086979,-779705.5851813176 L -1530012.190080931,-780260.5364067813 z M -1524401.965107971,-602732.0614772561 L -1525126.1567223407,-604139.195960906 L -1523586.8526399678,-606003.0684876713 L -1523586.8526399676,-605718.5409095224 L -1524401.965107971,-602732.0614772561 z M -1528533.3186388472,-630498.7315622936 L -1528494.9510105103,-630571.6300561329 L -1528457.8166273714,-630534.4956729931 L -1528533.3186388472,-630498.7315622936 z M -1544528.1849538968,-568334.3775753349 L -1544525.171589273,-568669.4502639212 L -1544519.7625373895,-568146.616493037 L -1544528.1849538968,-568334.3775753349 z M -1544548.3335030095,-567949.0584373218 L -1544516.0280702359,-567785.6464770267 L -1544684.972689852,-567405.7455318213 L -1544548.3335030095,-567949.0584373218 z M -1639656.9555189766,-319675.02587430296 L -1639596.4317266056,-320424.20966248424 L -1639239.5185470695,-319162.1655669265 L -1639656.9555189766,-319675.02587430296 z M -1643006.2390059647,-298141.3120715179 L -1643858.8261064424,-299391.3133165708 L -1643311.6066981554,-300082.74987545994 L -1643006.2390059647,-298141.3120715179 z M -1789357.5800408537,-333104.50166808977 L -1789352.6818067457,-333496.69262897136 L -1789196.1430502133,-333672.5280136933 L -1789357.5800408537,-333104.50166808977 z M -1835037.3472417817,-139557.38916998092 L -1834838.4694732286,-139209.35307501408 L -1835106.242560637,-139473.18378027173 L -1835037.3472417817,-139557.38916998092 z M -1841880.2976603133,-108944.05481717818 L -1842225.8577387666,-109201.09052471629 L -1842050.3343679053,-109581.39116158262 L -1841880.2976603133,-108944.05481717818 z M -1842753.3159029633,-229292.2394859635 L -1842341.057975922,-230582.86141345088 L -1842021.799507175,-232906.56282080538 L -1841574.9669133476,-232122.93532765986 L -1842753.3159029633,-229292.2394859635 z M -1847043.1118916566,-8536.014277265398 L -1847100.6603465534,-9336.867388047005 L -1846802.605914778,-7824.538319345856 L -1847043.1118916566,-8536.014277265398 z M -1849296.5595981234,-131731.75920197484 L -1846904.48635683,-128562.65818598453 L -1847018.646592253,-128434.22792113284 L -1849671.686664135,-129090.09231143014 L -1849296.5595981234,-131731.75920197484 z M -1847896.0715979596,-217463.43693130562 L -1847964.7290267912,-217535.05862524995 L -1847925.2473586837,-217600.8614054298 L -1847896.0715979596,-217463.43693130562 z M -1876675.9243859465,6215.306960366931 L -1874299.3611128593,4219.915384608576 L -1866748.5335014546,3238.5298847240724 L -1860662.8858560396,-807.2153299156984 L -1861050.2554114976,-3094.154630197335 L -1866566.9195530324,-6403.953131111096 L -1865171.1709458868,-8995.874326173502 L -1857972.504827036,-9617.435886204315 L -1851132.5330863795,-5139.773840220824 L -1850288.838434649,-2722.104067412026 L -1854233.295770002,-365.8629120621684 L -1850979.3056859807,7132.346371502641 L -1853401.8713180255,12947.74653767282 L -1863101.36711478,15726.306325240988 L -1867185.266990876,20554.58957187121 L -1871429.2546811877,16946.423726203702 L -1873221.6256914546,8322.102803108157 L -1876675.9243859465,6215.306960366931 z M -1851613.2030946123,-88616.87484232632 L -1851684.416084317,-89235.66356683066 L -1851349.711794654,-88677.68052693215 L -1851613.2030946123,-88616.87484232632 z M -1854860.0908834399,-63744.55823816676 L -1855937.677379439,-63598.15733892299 L -1854162.4590108357,-64148.416725260926 L -1854860.0908834399,-63744.55823816676 z M -1852090.285216427,-196819.9345837957 L -1852185.127802735,-197203.19608331798 L -1852160.8723732682,-197290.5156294003 L -1852090.285216427,-196819.9345837957 z M -1859746.4799594043,84005.20431370118 L -1854928.6084228032,83887.94094197554 L -1855240.7145223399,86690.90640689907 L -1859451.6130054975,85456.58943680688 L -1859746.4799594043,84005.20431370118 z M -1879936.5048534842,-342490.3577449781 L -1872299.0018878502,-354320.11273876927 L -1867490.7771049365,-349965.62415633944 L -1861417.2836801289,-338331.9423442232 L -1857878.384952221,-316555.7700773143 L -1863016.703570973,-301619.578490972 L -1867877.1873164375,-298186.3852890329 L -1878198.714568581,-295201.5223750074 L -1881331.375723323,-298191.7822505327 L -1880785.9484096502,-311982.3267581901 L -1878986.3065135025,-315857.88219446706 L -1880582.9173022136,-330967.55155271955 L -1879936.5048534842,-342490.3577449781 z M -1873582.9904885923,-128116.74923292136 L -1871966.0159323066,-134008.56793244128 L -1868451.800208728,-133531.40112908336 L -1865037.0163581264,-123198.85397827199 L -1869346.7926713962,-123740.56217000015 L -1872001.0589680101,-125843.42059552636 L -1873582.9904885923,-128116.74923292136 z M -1872359.070270815,-9397.900656424088 L -1872072.9591117685,-10664.775828438927 L -1871291.3191670987,-10564.862967871506 L -1872359.070270815,-9397.900656424088 z M -1877936.272271369,-265553.9055257571 L -1875483.7115570433,-266669.49799466104 L -1874453.8948870993,-262768.9013484291 L -1875063.9779516107,-257975.23561077152 L -1877257.929653621,-256776.92728472824 L -1878789.9119239736,-260282.7533214814 L -1877936.272271369,-265553.9055257571 z M -1889516.164445743,-80178.26203296286 L -1889946.488430314,-81363.4140167533 L -1889112.4057989898,-82510.58708319295 L -1889516.164445743,-80178.26203296286 z" /><path fill-rule="evenodd" fill="#66cc99" stroke="#555555" stroke-width="16040.113603133386" opacity="0.6" d="M -1470678.1865643433,-1012891.9750343396 L -1464960.7272939153,-1009515.8175621236 L -1458323.1079875862,-1010188.5782901793 L -1452261.3748882918,-1013124.7113792176 L -1446300.657546657,-1008886.5765157618 L -1443254.5662538488,-1009923.2763095567 L -1442584.609548385,-1013280.3222032235 L -1446876.7158690342,-1016664.2337417547 L -1445858.96843395,-1020137.4675294769 L -1447302.6525305347,-1022827.9386441815 L -1436331.3802521925,-1032253.3486666796 L -1438837.4432137017,-1041828.8917204431 L -1442067.5877909877,-1043578.7726356862 L -1444423.5073226101,-1042929.133467671 L -1455941.7870780667,-1030529.668088147 L -1463314.1231099416,-1032494.4051596975 L -1469590.3031219854,-1020037.0399838799 L -1470678.1865643433,-1012891.9750343396 z" /><path fill-rule="evenodd" fill="#66cc99" stroke="#555555" stroke-width="16040.113603133386" opacity="0.6" d="M -1463120.5456846696,-990139.7478877993 L -1450705.1120861273,-991628.8583592272 L -1448467.8887617742,-998660.0175380447 L -1450159.8861564214,-999765.9422057135 L -1454436.952593364,-997364.3609294662 L -1463429.7572145846,-999894.1746372388 L -1464822.2234683272,-991476.7409816922 L -1463120.5456846696,-990139.7478877993 z" /><path fill-rule="evenodd" fill="#66cc99" stroke="#555555" stroke-width="16040.113603133386" opacity="0.6" d="M -1939799.5579019017,-186405.52630798734 L -1937941.8930642323,-184164.88023557022 L -1925442.6731165268,-184228.07121996215 L -1923051.9509321458,-198791.26085238295 L -1925416.246703831,-199854.69497743263 L -1927184.3733909547,-197850.8232788092 L -1927395.8256597768,-208743.50710765267 L -1924966.912628709,-215681.58264314692 L -1926199.5648991892,-217113.93554707544 L -1930123.9639882522,-216277.81207266683 L -1933207.0531691336,-213001.6047370891 L -1933936.952764924,-207532.65910221962 L -1937129.5790518336,-202426.90597593872 L -1935275.325385954,-196271.20504551535 L -1936410.9613524992,-192563.26398613976 L -1943761.9887899316,-190159.36828168028 L -1943427.0965084722,-187184.6525282573 L -1939799.5579019017,-186405.52630798734 z" /><path fill-rule="evenodd" fill="#66cc99" stroke="#555555" stroke-width="16040.113603133386" opacity="0.6" d="M -1963858.42018166,-205865.00082000424 L -1961098.4726618803,-198291.05130436074 L -1959121.640068824,-195836.86221161147 L -1955127.1610518042,-195126.17848724007 L -1951404.4369510782,-198700.02760766493 L -1946326.9299852164,-199590.0317746282 L -1943084.3804244131,-202076.84312266475 L -1934185.7167246332,-221512.37219052907 L -1930252.8307994825,-223521.41317180448 L -1929432.2034629786,-227321.92534940978 L -1931274.0110048833,-237061.9285395681 L -1934099.5627675643,-237529.19016409345 L -1944714.494755563,-228838.8498594902 L -1951990.4245856397,-219218.84229165746 L -1955781.0378035973,-221791.1215074026 L -1958268.3710153908,-220905.7564391449 L -1956967.9195134172,-214903.6386615928 L -1959364.0161058507,-211949.99914105548 L -1963366.682082675,-211076.86300351672 L -1963858.42018166,-205865.00082000424 z" /><path fill-rule="evenodd" fill="#66cc99" stroke="#555555" stroke-width="16040.113603133386" opacity="0.6" d="M -1970187.354220814,-245205.0566734388 L -1968033.2543274479,-242961.86138928717 L -1951264.2710157204,-243248.64699509455 L -1941405.579188886,-245064.8201565059 L -1932744.539039791,-249268.60068401665 L -1931413.1632023999,-251609.99852901508 L -1932754.7908981727,-254538.49925321204 L -1943003.971066071,-260530.5925803237 L -1951329.6789025986,-253284.49660430622 L -1956422.3871216853,-254138.00001235344 L -1958388.3444757748,-256840.63438116113 L -1958104.3571377594,-261327.89952454215 L -1960043.224455233,-262975.4682068166 L -1965334.5108680187,-258386.72304346488 L -1966363.5402884441,-255574.47022645973 L -1968111.1280403747,-255337.1404658501 L -1970187.354220814,-245205.0566734388 z" /><path fill-rule="evenodd" fill="#66cc99" stroke="#555555" stroke-width="16040.113603133386" opacity="0.6" d="M -1963712.9570254358,-270700.07331465074 L -1958784.7507816155,-268093.96016185696 L -1947113.8347970122,-267594.40192359895 L -1942496.51189371,-263304.42699392256 L -1936048.1471535556,-263896.08193261764 L -1933716.712070851,-265980.27900290885 L -1933933.9222625557,-268301.7234630939 L -1939806.4441110555,-268413.9992518667 L -1942932.2065579575,-275786.19897248095 L -1933243.7026186478,-280413.93654133735 L -1932204.4731574063,-283041.9811234945 L -1935999.3405880444,-283950.10283493606 L -1946213.9198659405,-282425.5202199236 L -1953516.971587858,-285423.19259715086 L -1955884.1982714285,-280221.55327684537 L -1966559.8865041293,-275536.56388268503 L -1966782.1120284903,-270006.9593036113 L -1964947.289218921,-269242.12903906096 L -1963712.9570254358,-270700.07331465074 z" /><path fill-rule="evenodd" fill="#66cc99" stroke="#555555" stroke-width="16040.113603133386" opacity="0.6" d="M -1951907.6612034293,-343936.60159751103 L -1955360.498863809,-341076.75286074437 L -1953805.6369724052,-337003.5591849176 L -1954749.9913655722,-333888.3698763717 L -1952321.489044525,-330333.8388928045 L -1945302.5975620553,-328694.23079521174 L -1943766.902817803,-330960.2770355875 L -1939585.9035312538,-330378.9904208976 L -1934099.3939706078,-334020.81752395816 L -1934843.3445314546,-338557.8590042382 L -1936868.8535784718,-339749.5190494939 L -1942288.2823491506,-338841.5756947013 L -1943856.9802479714,-342449.5925850264 L -1938638.2011598933,-355575.70965923415 L -1939777.1833486555,-357949.39151634276 L -1943615.280740757,-357521.9436093386 L -1950220.1480873118,-347221.1661370281 L -1950149.523114503,-342808.4825808427 L -1951907.6612034293,-343936.60159751103 z" /><path fill-rule="evenodd" fill="#66cc99" stroke="#555555" stroke-width="16040.113603133386" opacity="0.6" d="M -1952777.0003185233,-327131.05234447296 L -1959019.7609344309,-322105.3037607064 L -1956760.145805886,-318829.461582119 L -1956463.4975205844,-311098.2013035805 L -1953549.2201888158,-310820.32626829535 L -1951857.7523859097,-305445.0469826888 L -1945101.464571424,-297398.64400191786 L -1937391.2803789543,-293761.9044664606 L -1934999.7865182862,-298250.28890334343 L -1937979.5321424175,-302298.50706807175 L -1936827.1525576755,-306579.9389896705 L -1942228.4882954848,-311966.08765404526 L -1945005.75118226,-318261.416743521 L -1937811.706608973,-318026.6209093025 L -1936103.8441194629,-319041.5356440964 L -1936517.199963044,-320916.8484368476 L -1941329.5418266873,-323431.19873873994 L -1948187.913859866,-322644.3555663114 L -1952777.0003185233,-327131.05234447296 z" /></g></g></svg>